<svg width="16" height="17" viewBox="0 0 16 17" fill="none" xmlns="http://www.w3.org/2000/svg">
<path d="M13.1156 11.0149C12.3537 11.0149 11.6735 11.324 11.1565 11.8298L5.7415 9.10413C5.76871 8.90744 5.79592 8.71074 5.79592 8.48595C5.79592 8.26116 5.76871 8.06446 5.7415 7.86777L11.1565 5.14215C11.6735 5.64793 12.3537 5.95702 13.1156 5.95702C14.7211 5.95702 16 4.60826 16 2.97851C16 1.32066 14.6939 0 13.1156 0C11.5102 0 10.2313 1.34876 10.2313 2.97851C10.2313 3.14711 10.2313 3.2876 10.2585 3.4562L4.73469 6.20992C4.2449 5.76033 3.59184 5.50744 2.88435 5.50744C1.27891 5.50744 0 6.8562 0 8.48595C0 10.1157 1.30612 11.4645 2.88435 11.4645C3.59184 11.4645 4.2449 11.2116 4.73469 10.762L10.2585 13.5438C10.2313 13.6843 10.2313 13.8529 10.2313 14.0215C10.2313 15.6793 11.5374 17 13.1156 17C14.7211 17 16 15.6512 16 14.0215C16 12.3636 14.7211 11.0149 13.1156 11.0149Z" fill="#C2CFE0"/>
</svg>
