<svg width="107" height="15" viewBox="0 0 107 15" fill="none" xmlns="http://www.w3.org/2000/svg">
<path d="M12.839 15V5.802H12.692L9.605 15H7.127L4.04 5.802H3.893V15H0.491V0.552H5.51L8.366 8.889H8.513L11.348 0.552H16.346V15H12.839ZM28.4937 15L27.6327 12.27H22.4877L21.6687 15H18.0147L22.6347 0.552H27.5907L32.2107 15H28.4937ZM25.0917 3.786H24.9867L23.3277 9.309H26.7717L25.0917 3.786ZM33.9197 0.552H39.0227C41.1507 0.552 42.6697 0.769 43.5797 1.203C44.4897 1.623 45.0567 2.295 45.2807 3.219C45.5047 4.129 45.6167 5.648 45.6167 7.776C45.6167 9.904 45.5047 11.43 45.2807 12.354C45.0567 13.264 44.4897 13.936 43.5797 14.37C42.6697 14.79 41.1507 15 39.0227 15H33.9197V0.552ZM38.9387 12.039C40.0167 12.039 40.7307 11.976 41.0807 11.85C41.4447 11.71 41.6687 11.388 41.7527 10.884C41.8507 10.366 41.8997 9.33 41.8997 7.776C41.8997 6.236 41.8507 5.207 41.7527 4.689C41.6547 4.171 41.4237 3.849 41.0597 3.723C40.7097 3.583 40.0027 3.513 38.9387 3.513H37.5527V12.039H38.9387ZM48.2537 15V0.552H51.9077V15H48.2537ZM67.2462 15V5.802H67.0992L64.0122 15H61.5342L58.4472 5.802H58.3002V15H54.8982V0.552H59.9172L62.7732 8.889H62.9202L65.7552 0.552H70.7532V15H67.2462ZM82.9009 15L82.0399 12.27H76.8949L76.0759 15H72.4219L77.0419 0.552H81.9979L86.6179 15H82.9009ZM79.4989 3.786H79.3939L77.7349 9.309H81.1789L79.4989 3.786ZM88.3269 0.552H93.4299C95.5579 0.552 97.0769 0.769 97.9869 1.203C98.8969 1.623 99.4639 2.295 99.6879 3.219C99.9119 4.129 100.024 5.648 100.024 7.776C100.024 9.904 99.9119 11.43 99.6879 12.354C99.4639 13.264 98.8969 13.936 97.9869 14.37C97.0769 14.79 95.5579 15 93.4299 15H88.3269V0.552ZM93.3459 12.039C94.4239 12.039 95.1379 11.976 95.4879 11.85C95.8519 11.71 96.0759 11.388 96.1599 10.884C96.2579 10.366 96.3069 9.33 96.3069 7.776C96.3069 6.236 96.2579 5.207 96.1599 4.689C96.0619 4.171 95.8309 3.849 95.4669 3.723C95.1169 3.583 94.4099 3.513 93.3459 3.513H91.9599V12.039H93.3459ZM102.661 15V0.552H106.315V15H102.661Z" fill="#2F80ED"/>
</svg>
