<svg width="66" height="66" viewBox="0 0 66 66" fill="none" xmlns="http://www.w3.org/2000/svg">
<path d="M18.839 24V14.802H18.692L15.605 24H13.127L10.04 14.802H9.893V24H6.491V9.552H11.51L14.366 17.889H14.513L17.348 9.552H22.346V24H18.839ZM34.4937 24L33.6327 21.27H28.4877L27.6687 24H24.0147L28.6347 9.552H33.5907L38.2107 24H34.4937ZM31.0917 12.786H30.9867L29.3277 18.309H32.7717L31.0917 12.786ZM39.9197 9.552H45.0227C47.1507 9.552 48.6697 9.769 49.5797 10.203C50.4897 10.623 51.0567 11.295 51.2807 12.219C51.5047 13.129 51.6167 14.648 51.6167 16.776C51.6167 18.904 51.5047 20.43 51.2807 21.354C51.0567 22.264 50.4897 22.936 49.5797 23.37C48.6697 23.79 47.1507 24 45.0227 24H39.9197V9.552ZM44.9387 21.039C46.0167 21.039 46.7307 20.976 47.0807 20.85C47.4447 20.71 47.6687 20.388 47.7527 19.884C47.8507 19.366 47.8997 18.33 47.8997 16.776C47.8997 15.236 47.8507 14.207 47.7527 13.689C47.6547 13.171 47.4237 12.849 47.0597 12.723C46.7097 12.583 46.0027 12.513 44.9387 12.513H43.5527V21.039H44.9387ZM54.2537 24V9.552H57.9077V24H54.2537ZM18.839 57V47.802H18.692L15.605 57H13.127L10.04 47.802H9.893V57H6.491V42.552H11.51L14.366 50.889H14.513L17.348 42.552H22.346V57H18.839ZM34.4937 57L33.6327 54.27H28.4877L27.6687 57H24.0147L28.6347 42.552H33.5907L38.2107 57H34.4937ZM31.0917 45.786H30.9867L29.3277 51.309H32.7717L31.0917 45.786ZM39.9197 42.552H45.0227C47.1507 42.552 48.6697 42.769 49.5797 43.203C50.4897 43.623 51.0567 44.295 51.2807 45.219C51.5047 46.129 51.6167 47.648 51.6167 49.776C51.6167 51.904 51.5047 53.43 51.2807 54.354C51.0567 55.264 50.4897 55.936 49.5797 56.37C48.6697 56.79 47.1507 57 45.0227 57H39.9197V42.552ZM44.9387 54.039C46.0167 54.039 46.7307 53.976 47.0807 53.85C47.4447 53.71 47.6687 53.388 47.7527 52.884C47.8507 52.366 47.8997 51.33 47.8997 49.776C47.8997 48.236 47.8507 47.207 47.7527 46.689C47.6547 46.171 47.4237 45.849 47.0597 45.723C46.7097 45.583 46.0027 45.513 44.9387 45.513H43.5527V54.039H44.9387ZM54.2537 57V42.552H57.9077V57H54.2537Z" fill="#2F80ED"/>
</svg>
