<svg width="34" height="34" viewBox="0 0 34 34" fill="none" xmlns="http://www.w3.org/2000/svg">
<circle cx="17" cy="17" r="17" fill="#707683"/>
<path d="M13.568 11.8056C13.568 9.90929 15.1037 8.37365 17 8.37365C18.8963 8.37365 20.4319 9.90929 20.4319 11.8056C20.4319 13.7019 18.8963 15.2375 17 15.2375C15.1037 15.2375 13.568 13.7019 13.568 11.8056ZM9.43608 21.1025C9.43608 20.6726 9.64585 20.2443 10.1142 19.812C10.5873 19.3754 11.2762 18.9835 12.0941 18.6559C13.731 18.0001 15.7084 17.6705 17 17.6705C18.2915 17.6705 20.269 18.0001 21.9059 18.6559C22.7238 18.9835 23.4126 19.3754 23.8857 19.812C24.3541 20.2443 24.5639 20.6726 24.5639 21.1025V23.5014H9.43608V21.1025Z" stroke="#F2F2F2" stroke-width="1.4"/>
</svg>
